<?xml version='1.0' encoding='iso-8859-1'?>
<!DOCTYPE svg PUBLIC '-//W3C//DTD SVG 1.1//EN' 'http://www.w3.org/Graphics/SVG/1.1/DTD/svg11.dtd'>
<svg version="1.1" xmlns="http://www.w3.org/2000/svg" viewBox="0 0 315 315" xmlns:xlink="http://www.w3.org/1999/xlink" enable-background="new 0 0 315 315">
  <path d="m315,153.755c0-13.876-11.288-25.165-25.164-25.165h-238.527v-70.175c0-7.03 5.719-12.749 12.749-12.749s12.749,5.719 12.749,12.749c0,3.866 3.134,7 7,7 3.866,0 7-3.134 7-7 0-14.749-12-26.749-26.749-26.749s-26.749,12-26.749,26.749v70.176h-12.145c-13.876-0.001-25.164,11.288-25.164,25.164 0,11.448 7.688,21.129 18.173,24.166 0.064,20.84 0.8,41.789 9.207,57.286 6.592,12.151 17.102,20.121 32.288,24.267l-7.235,13.565c-1.819,3.411-0.528,7.651 2.883,9.471 1.049,0.56 2.176,0.824 3.288,0.824 2.502,0 4.923-1.345 6.183-3.707l9.333-17.5c4.749,0.515 9.833,0.775 15.281,0.775h136.199c5.449,0 10.532-0.261 15.281-0.775l9.333,17.5c1.26,2.362 3.681,3.707 6.183,3.707 1.111,0 2.239-0.265 3.288-0.824 3.411-1.819 4.702-6.059 2.883-9.471l-7.234-13.565c15.185-4.146 25.695-12.115 32.287-24.267 8.407-15.497 9.143-36.446 9.207-57.286 10.483-3.037 18.172-12.717 18.172-24.166zm-89.4,95.148h-136.2c-52.108,0-56.88-23.965-57.214-69.985h250.627c-0.334,46.02-5.105,69.985-57.213,69.985zm64.236-83.986h-264.672c-6.156,0-11.164-5.007-11.164-11.162 0-6.156 5.008-11.165 11.164-11.165h264.672c6.156,0 11.164,5.009 11.164,11.165 0,6.156-5.008,11.162-11.164,11.162z"/>
</svg>
