<?xml version="1.0" encoding="iso-8859-1"?>
<!-- Generator: Adobe Illustrator 19.0.0, SVG Export Plug-In . SVG Version: 6.00 Build 0)  -->
<svg version="1.1" id="Layer_1" xmlns="http://www.w3.org/2000/svg" xmlns:xlink="http://www.w3.org/1999/xlink" x="0px" y="0px"
	 viewBox="0 0 503.607 503.607" style="enable-background:new 0 0 503.607 503.607;" xml:space="preserve">
<g transform="translate(1 1)">
	<g>
		<path d="M443.852,192.049H181.187c1.584-3.571,2.468-7.542,2.468-11.751v-10.072c0-15.948-12.59-28.538-28.538-28.538H94.685
			c-15.948,0-28.538,12.59-28.538,28.538v10.072c0,4.209,0.884,8.179,2.468,11.751H49.361V66.148
			c0-9.233-7.554-16.787-16.787-16.787H15.787C6.554,49.361-1,56.915-1,66.148v134.295v235.016c0,9.233,7.554,16.787,16.787,16.787
			h16.787c9.233,0,16.787-7.554,16.787-16.787V326.344h75.541h327.344v109.115c0,9.233,7.554,16.787,16.787,16.787h16.787
			c9.233,0,16.787-7.554,16.787-16.787V250.803C502.607,218.069,476.587,192.049,443.852,192.049z M82.934,180.298v-10.072
			c0-6.715,5.036-11.751,11.751-11.751h60.433c6.715,0,11.751,5.036,11.751,11.751v10.072c0,6.715-5.036,11.751-11.751,11.751
			h-30.216H94.685C87.971,192.049,82.934,187.013,82.934,180.298z M15.787,66.148h16.787v125.902H15.787V66.148z M40.967,309.557
			c-5.036,0-8.393,3.357-8.393,8.393v117.508H15.787V208.836h25.18h53.718h21.823v100.721H40.967z M485.82,435.459h-16.787V317.951
			c0-5.036-3.357-8.393-8.393-8.393H133.295V208.836h21.823h288.734c23.502,0,41.967,18.466,41.967,41.967V435.459z"/>
	</g>
</g>
<g>
</g>
<g>
</g>
<g>
</g>
<g>
</g>
<g>
</g>
<g>
</g>
<g>
</g>
<g>
</g>
<g>
</g>
<g>
</g>
<g>
</g>
<g>
</g>
<g>
</g>
<g>
</g>
<g>
</g>
</svg>
